<svg width="6118" height="1471" xmlns="http://www.w3.org/2000/svg" xmlns:xlink="http://www.w3.org/1999/xlink" xml:space="preserve" overflow="hidden"><defs><clipPath id="clip0"><rect x="47" y="44" width="6118" height="1471"/></clipPath></defs><g clip-path="url(#clip0)" transform="translate(-47 -44)"><path d="M49.5 292.668C49.5 276.007 63.0064 262.5 79.6673 262.5L545.333 262.5C561.994 262.5 575.5 276.007 575.5 292.668L575.5 413.333C575.5 429.994 561.994 443.5 545.333 443.5L79.6673 443.5C63.0064 443.5 49.5 429.994 49.5 413.333Z" stroke="#000000" stroke-width="4.58333" stroke-miterlimit="8" fill="none" fill-rule="evenodd"/><text font-family="Times New Roman,Times New Roman_MSFontService,sans-serif" font-weight="400" font-size="83" transform="matrix(1 0 0 1 163.066 334)">DwConv<tspan font-size="83" x="-26.3542" y="97">3</tspan><tspan font-family="DengXian,DengXian_MSFontService,sans-serif" font-size="83" x="14.8958" y="97">×</tspan><tspan font-size="83" x="69.8958" y="97">3 dim/3</tspan></text><path d="M615.5 293.668C615.5 277.007 629.007 263.5 645.668 263.5L1111.33 263.5C1127.99 263.5 1141.5 277.007 1141.5 293.668L1141.5 414.333C1141.5 430.994 1127.99 444.5 1111.33 444.5L645.668 444.5C629.007 444.5 615.5 430.994 615.5 414.333Z" stroke="#000000" stroke-width="4.58333" stroke-miterlimit="8" fill="none" fill-rule="evenodd"/><text font-family="Times New Roman,Times New Roman_MSFontService,sans-serif" font-weight="400" font-size="83" transform="matrix(1 0 0 1 728.879 335)">DwConv<tspan font-size="83" x="-26.3541" y="97">5</tspan><tspan font-family="DengXian,DengXian_MSFontService,sans-serif" font-size="83" x="14.8959" y="97">×</tspan><tspan font-size="83" x="69.8959" y="97">5 dim/3</tspan></text><path d="M1181.5 293.668C1181.5 277.007 1195.01 263.5 1211.67 263.5L1677.33 263.5C1693.99 263.5 1707.5 277.007 1707.5 293.668L1707.5 414.333C1707.5 430.994 1693.99 444.5 1677.33 444.5L1211.67 444.5C1195.01 444.5 1181.5 430.994 1181.5 414.333Z" stroke="#000000" stroke-width="4.58333" stroke-miterlimit="8" fill="none" fill-rule="evenodd"/><text font-family="Times New Roman,Times New Roman_MSFontService,sans-serif" font-weight="400" font-size="83" transform="matrix(1 0 0 1 1294.93 335)">DwConv<tspan font-size="83" x="-26.3541" y="97">7</tspan><tspan font-family="DengXian,DengXian_MSFontService,sans-serif" font-size="83" x="14.8959" y="97">×</tspan><tspan font-size="83" x="69.8959" y="97">7 dim/3</tspan></text><path d="M880.792 444.497 881.002 614.488 876.419 614.494 876.208 444.503ZM892.455 609.89 878.739 637.407 864.955 609.924Z"/><path d="M312.5 190.5 1444.37 191.5" stroke="#000000" stroke-width="4.58333" stroke-miterlimit="8" fill="none" fill-rule="evenodd"/><path d="M314.792 190.5 314.792 240.244 310.209 240.244 310.208 190.5ZM326.25 235.66 312.5 263.161 298.75 235.661Z"/><path d="M1446.79 190.5 1446.79 241.244 1442.21 241.244 1442.21 190.5ZM1458.25 236.66 1444.5 264.16 1430.75 236.66Z"/><path d="M312.5 513.5 1444.37 514.5" stroke="#000000" stroke-width="4.58333" stroke-miterlimit="8" fill="none" fill-rule="evenodd"/><path d="M312.5 443.5 312.5 513.133" stroke="#000000" stroke-width="4.58333" stroke-miterlimit="8" fill="none" fill-rule="evenodd"/><path d="M0 0 0.000360892 72.1467" stroke="#000000" stroke-width="4.58333" stroke-miterlimit="8" fill="none" fill-rule="evenodd" transform="matrix(1 0 0 -1 1444.5 516.647)"/><text font-family="Times New Roman,Times New Roman_MSFontService,sans-serif" font-weight="400" font-size="83" transform="matrix(1 0 0 1 549.655 604)">Concat</text><path d="M2.29162-0.0142083 3.38487 176.314-1.19837 176.342-2.29162 0.0142083ZM14.8146 171.659 1.23533 199.244-12.6849 171.83Z" transform="matrix(-1 0 0 1 877.735 62.5001)"/><text font-family="Times New Roman,Times New Roman_MSFontService,sans-serif" font-weight="400" font-size="83" transform="matrix(1 0 0 1 909.104 149)">dim</text><rect x="1278.5" y="601.5" width="336" height="336" stroke="#000000" stroke-width="4.58333" stroke-miterlimit="8" fill="#C5E0B4"/><rect x="1229.5" y="643.5" width="336" height="336" stroke="#000000" stroke-width="4.58333" stroke-miterlimit="8" fill="#C5E0B4"/><rect x="1106.5" y="856.5" width="337" height="336" stroke="#000000" stroke-width="4.58333" stroke-miterlimit="8" fill="#FFFFFF"/><rect x="1189" y="940" width="168" height="168" fill="#C5E0B4"/><rect x="1059.5" y="901.5" width="337" height="336" stroke="#000000" stroke-width="4.58333" stroke-miterlimit="8" fill="#FFFFFF"/><rect x="1120" y="962" width="215" height="214" fill="#C5E0B4"/><rect x="937.5" y="1110.5" width="336" height="336" stroke="#000000" stroke-width="4.58333" stroke-miterlimit="8" fill="#FFFFFF"/><rect x="1019" y="1194" width="169" height="169" fill="#C5E0B4"/><rect x="890.5" y="1155.5" width="336" height="336" stroke="#000000" stroke-width="4.58333" stroke-miterlimit="8" fill="#FFFFFF"/><rect x="972" y="1239" width="169" height="169" fill="#C5E0B4"/><path d="M49.5 1271.5C49.5 1257.14 61.1408 1245.5 75.5005 1245.5L439.499 1245.5C453.859 1245.5 465.5 1257.14 465.5 1271.5L465.5 1375.5C465.5 1389.86 453.859 1401.5 439.499 1401.5L75.5005 1401.5C61.1408 1401.5 49.5 1389.86 49.5 1375.5Z" stroke="#000000" stroke-width="4.58333" stroke-miterlimit="8" fill="none" fill-rule="evenodd"/><text font-family="Times New Roman,Times New Roman_MSFontService,sans-serif" font-weight="400" font-size="73" transform="matrix(1 0 0 1 125.145 1306)">DwConv<tspan font-size="73" x="-24.0625" y="86">3</tspan><tspan font-family="DengXian,DengXian_MSFontService,sans-serif" font-size="73" x="12.6042" y="86">×</tspan><tspan font-size="73" x="61.3021" y="86">3 dim/3</tspan></text><path d="M49.5 1017.5C49.5 1003.14 61.1408 991.5 75.5005 991.5L439.499 991.5C453.859 991.5 465.5 1003.14 465.5 1017.5L465.5 1121.5C465.5 1135.86 453.859 1147.5 439.499 1147.5L75.5005 1147.5C61.1408 1147.5 49.5 1135.86 49.5 1121.5Z" stroke="#000000" stroke-width="4.58333" stroke-miterlimit="8" fill="none" fill-rule="evenodd"/><text font-family="Times New Roman,Times New Roman_MSFontService,sans-serif" font-weight="400" font-size="73" transform="matrix(1 0 0 1 125.145 1052)">DwConv<tspan font-size="73" x="-24.0625" y="86">5</tspan><tspan font-family="DengXian,DengXian_MSFontService,sans-serif" font-size="73" x="12.6042" y="86">×</tspan><tspan font-size="73" x="61.3021" y="86">5 dim/3</tspan></text><path d="M49.5 758.501C49.5 744.141 61.1408 732.5 75.5005 732.5L439.499 732.5C453.859 732.5 465.5 744.141 465.5 758.501L465.5 862.499C465.5 876.859 453.859 888.5 439.499 888.5L75.5005 888.5C61.1408 888.5 49.5 876.859 49.5 862.499Z" stroke="#000000" stroke-width="4.58333" stroke-miterlimit="8" fill="none" fill-rule="evenodd"/><text font-family="Times New Roman,Times New Roman_MSFontService,sans-serif" font-weight="400" font-size="73" transform="matrix(1 0 0 1 125.145 793)">DwConv<tspan font-size="73" x="-24.0625" y="86">7</tspan><tspan font-family="DengXian,DengXian_MSFontService,sans-serif" font-size="73" x="12.6042" y="86">×</tspan><tspan font-size="73" x="61.3021" y="86">7 dim/3</tspan></text><path d="M465.5 1321.21 867.359 1321.21 867.359 1325.79 465.5 1325.79ZM862.776 1309.75 890.276 1323.5 862.776 1337.25Z"/><path d="M465.501 1067.21 1036.99 1067.51 1036.98 1072.09 465.499 1071.79ZM1032.41 1056.05 1059.9 1069.81 1032.39 1083.55Z"/><path d="M465.501 808.208 1206.61 808.709 1206.61 813.293 465.498 812.792ZM1202.04 797.248 1229.53 811.016 1202.02 824.748Z"/><path d="M1650.69 962.93C1664.73 972.44 1664.33 997.535 1649.8 1018.98L1517.73 1213.89C1503.2 1235.34 1502.8 1260.43 1516.83 1269.94 1502.8 1260.43 1479.64 1270.11 1465.11 1291.55L1333.04 1486.47C1318.51 1507.91 1295.35 1517.59 1281.31 1508.08" stroke="#000000" stroke-width="4.58333" stroke-miterlimit="8" fill="none" fill-rule="evenodd"/><text font-family="Times New Roman,Times New Roman_MSFontService,sans-serif" font-weight="400" font-size="83" transform="matrix(1 0 0 1 1461.64 1392)">Concat<tspan font-size="83" x="-938.714" y="-356">Padding</tspan><tspan font-size="83" x="-938.714" y="-98">Padding</tspan><tspan font-size="83" x="802.869" y="-580">fuse BN</tspan><tspan font-size="83" x="802.869" y="-331">fuse BN</tspan></text><rect x="3611.5" y="662.5" width="336" height="336" stroke="#000000" stroke-width="4.58333" stroke-miterlimit="8" fill="#C5E0B4"/><rect x="3657" y="708" width="244" height="244" fill="#548235" fill-opacity="0.301961"/><rect x="3707" y="758" width="144" height="144" fill="#548235" fill-opacity="0.301961"/><path d="M1874.5 290.667C1874.5 274.006 1888.01 260.5 1904.67 260.5L2502.33 260.5C2518.99 260.5 2532.5 274.006 2532.5 290.667L2532.5 411.333C2532.5 427.994 2518.99 441.5 2502.33 441.5L1904.67 441.5C1888.01 441.5 1874.5 427.994 1874.5 411.333Z" stroke="#000000" stroke-width="4.58333" stroke-miterlimit="8" fill="none" fill-rule="evenodd"/><text font-family="Times New Roman,Times New Roman_MSFontService,sans-serif" font-weight="400" font-size="83" transform="matrix(1 0 0 1 2054.36 332)">DwConv<tspan font-size="83" x="-61.8749" y="97">3</tspan><tspan font-family="DengXian,DengXian_MSFontService,sans-serif" font-size="83" x="-20.6249" y="97">×</tspan><tspan font-size="83" x="34.375" y="97">3 dim BN</tspan></text><path d="M2923.79 62.4769 2925.58 238.805 2920.99 238.852 2919.21 62.5232ZM2936.99 234.106 2923.52 261.744 2909.49 234.385Z"/><text font-family="Times New Roman,Times New Roman_MSFontService,sans-serif" font-weight="400" font-size="83" transform="matrix(1 0 0 1 2953.61 158)">dim</text><path d="M2925.79 442.497 2926.02 612.488 2921.43 612.494 2921.21 442.503ZM2937.47 607.889 2923.76 635.407 2909.97 607.926Z"/><path d="M0 0 1414.33 0.283301" stroke="#000000" stroke-width="4.58333" stroke-miterlimit="8" fill="none" fill-rule="evenodd" transform="matrix(1 0 0 -1 2203.5 195.783)"/><path d="M0 0 1414.33 0.283301" stroke="#000000" stroke-width="4.58333" stroke-miterlimit="8" fill="none" fill-rule="evenodd" transform="matrix(1 0 0 -1 2203.5 510.783)"/><path d="M2884.5 508.5C2884.5 485.304 2903.3 466.5 2926.5 466.5 2949.7 466.5 2968.5 485.304 2968.5 508.5 2968.5 531.696 2949.7 550.5 2926.5 550.5 2903.3 550.5 2884.5 531.696 2884.5 508.5Z" stroke="#000000" stroke-width="4.58333" stroke-miterlimit="8" fill="none" fill-rule="evenodd"/><path d="M2591.5 290.668C2591.5 274.007 2605.01 260.5 2621.67 260.5L3220.33 260.5C3236.99 260.5 3250.5 274.007 3250.5 290.668L3250.5 411.332C3250.5 427.993 3236.99 441.5 3220.33 441.5L2621.67 441.5C2605.01 441.5 2591.5 427.993 2591.5 411.332Z" stroke="#000000" stroke-width="4.58333" stroke-miterlimit="8" fill="none" fill-rule="evenodd"/><text font-family="Times New Roman,Times New Roman_MSFontService,sans-serif" font-weight="400" font-size="83" transform="matrix(1 0 0 1 2771.65 332)">DwConv<tspan font-size="83" x="-61.875" y="97">5</tspan><tspan font-family="DengXian,DengXian_MSFontService,sans-serif" font-size="83" x="-20.625" y="97">×</tspan><tspan font-size="83" x="34.375" y="97">5 dim BN</tspan></text><path d="M3289.5 290.667C3289.5 274.006 3303.01 260.5 3319.67 260.5L3917.33 260.5C3933.99 260.5 3947.5 274.006 3947.5 290.667L3947.5 411.333C3947.5 427.994 3933.99 441.5 3917.33 441.5L3319.67 441.5C3303.01 441.5 3289.5 427.994 3289.5 411.333Z" stroke="#000000" stroke-width="4.58333" stroke-miterlimit="8" fill="none" fill-rule="evenodd"/><text font-family="Times New Roman,Times New Roman_MSFontService,sans-serif" font-weight="400" font-size="83" transform="matrix(1 0 0 1 3468.69 332)">DwConv<tspan font-size="83" x="-61.875" y="97">7</tspan><tspan font-family="DengXian,DengXian_MSFontService,sans-serif" font-size="83" x="-20.625" y="97">×</tspan><tspan font-size="83" x="34.375" y="97">7 dim BN</tspan></text><path d="M2205.79 195.5 2205.79 238.179 2201.21 238.179 2201.21 195.5ZM2217.25 233.596 2203.5 261.096 2189.75 233.596Z"/><path d="M3620.79 195.5 3620.79 237.896 3616.21 237.896 3616.21 195.5ZM3632.25 233.313 3618.5 260.813 3604.75 233.313Z"/><path d="M2203.5 441.5 2203.5 509.436" stroke="#000000" stroke-width="4.58333" stroke-miterlimit="8" fill="none" fill-rule="evenodd"/><path d="M3618.5 441.5 3618.5 509.72" stroke="#000000" stroke-width="4.58333" stroke-miterlimit="8" fill="none" fill-rule="evenodd"/><path d="M1872.5 1271.5C1872.5 1257.14 1884.14 1245.5 1898.5 1245.5L2208.5 1245.5C2222.86 1245.5 2234.5 1257.14 2234.5 1271.5L2234.5 1375.5C2234.5 1389.86 2222.86 1401.5 2208.5 1401.5L1898.5 1401.5C1884.14 1401.5 1872.5 1389.86 1872.5 1375.5Z" stroke="#000000" stroke-width="4.58333" stroke-miterlimit="8" fill="none" fill-rule="evenodd"/><text font-family="Times New Roman,Times New Roman_MSFontService,sans-serif" font-weight="400" font-size="73" transform="matrix(1 0 0 1 1920.94 1306)">DwConv<tspan font-size="73" x="4.58337" y="86">3</tspan><tspan font-family="DengXian,DengXian_MSFontService,sans-serif" font-size="73" x="41.25" y="86">×</tspan><tspan font-size="73" x="89.948" y="86">3 dim</tspan></text><path d="M1872.5 1029.5C1872.5 1015.14 1884.14 1003.5 1898.5 1003.5L2208.5 1003.5C2222.86 1003.5 2234.5 1015.14 2234.5 1029.5L2234.5 1133.5C2234.5 1147.86 2222.86 1159.5 2208.5 1159.5L1898.5 1159.5C1884.14 1159.5 1872.5 1147.86 1872.5 1133.5Z" stroke="#000000" stroke-width="4.58333" stroke-miterlimit="8" fill="none" fill-rule="evenodd"/><text font-family="Times New Roman,Times New Roman_MSFontService,sans-serif" font-weight="400" font-size="73" transform="matrix(1 0 0 1 1920.94 1064)">DwConv<tspan font-size="73" x="4.58337" y="86">5</tspan><tspan font-family="DengXian,DengXian_MSFontService,sans-serif" font-size="73" x="41.25" y="86">×</tspan><tspan font-size="73" x="89.948" y="86">5 dim</tspan></text><path d="M1875.5 778.5C1875.5 764.141 1887.14 752.5 1901.5 752.5L2211.5 752.5C2225.86 752.5 2237.5 764.141 2237.5 778.5L2237.5 882.5C2237.5 896.859 2225.86 908.5 2211.5 908.5L1901.5 908.5C1887.14 908.5 1875.5 896.859 1875.5 882.5Z" stroke="#000000" stroke-width="4.58333" stroke-miterlimit="8" fill="none" fill-rule="evenodd"/><text font-family="Times New Roman,Times New Roman_MSFontService,sans-serif" font-weight="400" font-size="73" transform="matrix(1 0 0 1 1923.97 813)">DwConv<tspan font-size="73" x="4.58325" y="86">7</tspan><tspan font-family="DengXian,DengXian_MSFontService,sans-serif" font-size="73" x="41.25" y="86">×</tspan><tspan font-size="73" x="89.9479" y="86">7 dim</tspan></text><rect x="2847.5" y="662.5" width="337" height="336" stroke="#000000" stroke-width="4.58333" stroke-miterlimit="8" fill="#C5E0B4"/><rect x="2711.5" y="913.5" width="336" height="336" stroke="#000000" stroke-width="4.58333" stroke-miterlimit="8" fill="#FFFFFF"/><rect x="2772" y="974" width="214" height="214" fill="#C5E0B4"/><rect x="2575.5" y="1157.5" width="336" height="336" stroke="#000000" stroke-width="4.58333" stroke-miterlimit="8" fill="#FFFFFF"/><rect x="2658" y="1241" width="168" height="168" fill="#C5E0B4"/><path d="M2231.52 1321.21 2549.86 1323.59 2549.83 1328.18 2231.48 1325.79ZM2545.36 1312.1 2572.76 1326.06 2545.16 1339.6Z"/><path d="M2231.5 1079.21 2689.04 1079.21 2689.04 1083.79 2231.5 1083.79ZM2684.45 1067.75 2711.95 1081.5 2684.45 1095.25Z"/><path d="M2232.5 828.208 2824.69 828.209 2824.69 832.792 2232.5 832.792ZM2820.11 816.75 2847.61 830.5 2820.11 844.25Z"/><text font-family="Times New Roman,Times New Roman_MSFontService,sans-serif" font-weight="400" font-size="83" transform="matrix(1 0 0 1 2264.55 1158)">Padding<tspan font-size="83" x="0" y="243">Padding</tspan><tspan font-size="83" x="-0.0444336" y="146">fuse BN</tspan></text><text font-family="Times New Roman,Times New Roman_MSFontService,sans-serif" font-weight="400" font-size="64" transform="translate(2757.72 1225)">×</text><text font-family="Times New Roman,Times New Roman_MSFontService,sans-serif" font-weight="400" font-size="64" transform="matrix(1 0 0 1 2793.82 1225)">dim</text><path d="M3051.51 1086.21 3308.98 1087.18 3308.96 1091.76 3051.49 1090.79ZM3304.44 1075.7 3331.89 1089.56 3304.34 1103.2Z"/><rect x="3568.5" y="744.5" width="336" height="336" stroke="#000000" stroke-width="4.58333" stroke-miterlimit="8" fill="#C5E0B4"/><rect x="3614" y="790" width="244" height="244" fill="#548235" fill-opacity="0.301961"/><rect x="3664" y="840" width="144" height="144" fill="#548235" fill-opacity="0.301961"/><rect x="3525.5" y="826.5" width="336" height="336" stroke="#000000" stroke-width="4.58333" stroke-miterlimit="8" fill="#C5E0B4"/><rect x="3571" y="872" width="244" height="244" fill="#548235" fill-opacity="0.301961"/><rect x="3621" y="922" width="144" height="144" fill="#548235" fill-opacity="0.301961"/><rect x="3482.5" y="909.5" width="336" height="336" stroke="#000000" stroke-width="4.58333" stroke-miterlimit="8" fill="#C5E0B4"/><rect x="3529" y="955" width="243" height="244" fill="#548235" fill-opacity="0.301961"/><rect x="3578" y="1005" width="145" height="144" fill="#548235" fill-opacity="0.301961"/><rect x="3440.5" y="991.5" width="336" height="336" stroke="#000000" stroke-width="4.58333" stroke-miterlimit="8" fill="#C5E0B4"/><rect x="3486" y="1037" width="244" height="244" fill="#548235" fill-opacity="0.301961"/><rect x="3536" y="1087" width="144" height="144" fill="#548235" fill-opacity="0.301961"/><rect x="3397.5" y="1073.5" width="336" height="336" stroke="#000000" stroke-width="4.58333" stroke-miterlimit="8" fill="#C5E0B4"/><rect x="3443" y="1120" width="244" height="243" fill="#548235" fill-opacity="0.301961"/><rect x="3493" y="1169" width="144" height="144" fill="#548235" fill-opacity="0.301961"/><rect x="3354.5" y="1157.5" width="336" height="336" stroke="#000000" stroke-width="4.58333" stroke-miterlimit="8" fill="#C5E0B4"/><rect x="3400" y="1203" width="244" height="244" fill="#548235" fill-opacity="0.301961"/><rect x="3450" y="1253" width="144" height="144" fill="#548235" fill-opacity="0.301961"/><text font-family="Times New Roman,Times New Roman_MSFontService,sans-serif" font-weight="400" font-size="83" transform="matrix(1 0 0 1 3109.4 1162)">Add</text><text font-family="Times New Roman,Times New Roman_MSFontService,sans-serif" font-weight="400" font-size="64" transform="translate(2885.14 983)">×</text><text font-family="Times New Roman,Times New Roman_MSFontService,sans-serif" font-weight="400" font-size="64" transform="matrix(1 0 0 1 2921.23 983)">dim</text><text font-family="Times New Roman,Times New Roman_MSFontService,sans-serif" font-weight="400" font-size="64" transform="translate(3023.56 735)">×</text><text font-family="Times New Roman,Times New Roman_MSFontService,sans-serif" font-weight="400" font-size="64" transform="matrix(1 0 0 1 3059.65 735)">dim<tspan font-size="83" x="1420.29" y="77">fuse BN</tspan><tspan font-size="83" x="1420.29" y="326">fuse BN</tspan></text><rect x="5826.5" y="662.5" width="336" height="336" stroke="#000000" stroke-width="4.58333" stroke-miterlimit="8" fill="#C5E0B4"/><rect x="5922" y="758" width="144" height="144" fill="#548235" fill-opacity="0.301961"/><path d="M4090.5 290.667C4090.5 274.006 4104.01 260.5 4120.67 260.5L4718.33 260.5C4734.99 260.5 4748.5 274.006 4748.5 290.667L4748.5 411.333C4748.5 427.994 4734.99 441.5 4718.33 441.5L4120.67 441.5C4104.01 441.5 4090.5 427.994 4090.5 411.333Z" stroke="#000000" stroke-width="4.58333" stroke-miterlimit="8" fill="none" fill-rule="evenodd"/><text font-family="Times New Roman,Times New Roman_MSFontService,sans-serif" font-weight="400" font-size="83" transform="matrix(1 0 0 1 4269.8 332)">DwConv<tspan font-size="83" x="-61.875" y="97">3</tspan><tspan font-family="DengXian,DengXian_MSFontService,sans-serif" font-size="83" x="-20.625" y="97">×</tspan><tspan font-size="83" x="34.375" y="97">1 dim BN</tspan></text><path d="M5139.79 62.4769 5141.58 238.805 5136.99 238.852 5135.21 62.5232ZM5152.99 234.106 5139.52 261.744 5125.49 234.385Z"/><text font-family="Times New Roman,Times New Roman_MSFontService,sans-serif" font-weight="400" font-size="83" transform="matrix(1 0 0 1 5169.05 158)">dim</text><path d="M5141.79 442.497 5142.02 612.488 5137.43 612.494 5137.21 442.503ZM5153.47 607.889 5139.76 635.407 5125.97 607.926Z"/><path d="M0 0 1414.33 0.283301" stroke="#000000" stroke-width="4.58333" stroke-miterlimit="8" fill="none" fill-rule="evenodd" transform="matrix(1 0 0 -1 4419.5 195.783)"/><path d="M0 0 1414.33 0.283301" stroke="#000000" stroke-width="4.58333" stroke-miterlimit="8" fill="none" fill-rule="evenodd" transform="matrix(1 0 0 -1 4419.5 510.783)"/><path d="M5099.5 508.5C5099.5 485.304 5118.3 466.5 5141.5 466.5 5164.7 466.5 5183.5 485.304 5183.5 508.5 5183.5 531.696 5164.7 550.5 5141.5 550.5 5118.3 550.5 5099.5 531.696 5099.5 508.5Z" stroke="#000000" stroke-width="4.58333" stroke-miterlimit="8" fill="none" fill-rule="evenodd"/><path d="M4807.5 290.667C4807.5 274.006 4821.01 260.5 4837.67 260.5L5435.33 260.5C5451.99 260.5 5465.5 274.006 5465.5 290.667L5465.5 411.333C5465.5 427.994 5451.99 441.5 5435.33 441.5L4837.67 441.5C4821.01 441.5 4807.5 427.994 4807.5 411.333Z" stroke="#000000" stroke-width="4.58333" stroke-miterlimit="8" fill="none" fill-rule="evenodd"/><text font-family="Times New Roman,Times New Roman_MSFontService,sans-serif" font-weight="400" font-size="83" transform="matrix(1 0 0 1 4987.09 332)">DwConv<tspan font-size="83" x="-61.875" y="97">1</tspan><tspan font-family="DengXian,DengXian_MSFontService,sans-serif" font-size="83" x="-20.625" y="97">×</tspan><tspan font-size="83" x="34.375" y="97">5 dim BN</tspan></text><path d="M5504.5 290.667C5504.5 274.006 5518.01 260.5 5534.67 260.5L6132.33 260.5C6148.99 260.5 6162.5 274.006 6162.5 290.667L6162.5 411.333C6162.5 427.994 6148.99 441.5 6132.33 441.5L5534.67 441.5C5518.01 441.5 5504.5 427.994 5504.5 411.333Z" stroke="#000000" stroke-width="4.58333" stroke-miterlimit="8" fill="none" fill-rule="evenodd"/><text font-family="Times New Roman,Times New Roman_MSFontService,sans-serif" font-weight="400" font-size="83" transform="matrix(1 0 0 1 5684.13 332)">DwConv<tspan font-size="83" x="-61.875" y="97">7</tspan><tspan font-family="DengXian,DengXian_MSFontService,sans-serif" font-size="83" x="-20.625" y="97">×</tspan><tspan font-size="83" x="34.375" y="97">7 dim BN</tspan></text><path d="M4421.79 195.5 4421.79 238.179 4417.21 238.179 4417.21 195.5ZM4433.25 233.596 4419.5 261.096 4405.75 233.596Z"/><path d="M5835.79 195.5 5835.79 237.896 5831.21 237.896 5831.21 195.5ZM5847.25 233.313 5833.5 260.813 5819.75 233.313Z"/><path d="M4419.5 441.5 4419.5 509.436" stroke="#000000" stroke-width="4.58333" stroke-miterlimit="8" fill="none" fill-rule="evenodd"/><path d="M5833.5 441.5 5833.5 509.72" stroke="#000000" stroke-width="4.58333" stroke-miterlimit="8" fill="none" fill-rule="evenodd"/><path d="M4088.5 1271.5C4088.5 1257.14 4100.14 1245.5 4114.5 1245.5L4423.5 1245.5C4437.86 1245.5 4449.5 1257.14 4449.5 1271.5L4449.5 1375.5C4449.5 1389.86 4437.86 1401.5 4423.5 1401.5L4114.5 1401.5C4100.14 1401.5 4088.5 1389.86 4088.5 1375.5Z" stroke="#000000" stroke-width="4.58333" stroke-miterlimit="8" fill="none" fill-rule="evenodd"/><text font-family="Times New Roman,Times New Roman_MSFontService,sans-serif" font-weight="400" font-size="73" transform="matrix(1 0 0 1 4136.38 1306)">DwConv<tspan font-size="73" x="4.58301" y="86">3</tspan><tspan font-family="DengXian,DengXian_MSFontService,sans-serif" font-size="73" x="41.25" y="86">×</tspan><tspan font-size="73" x="89.9478" y="86">1 dim</tspan></text><path d="M4088.5 1029.5C4088.5 1015.14 4100.14 1003.5 4114.5 1003.5L4423.5 1003.5C4437.86 1003.5 4449.5 1015.14 4449.5 1029.5L4449.5 1133.5C4449.5 1147.86 4437.86 1159.5 4423.5 1159.5L4114.5 1159.5C4100.14 1159.5 4088.5 1147.86 4088.5 1133.5Z" stroke="#000000" stroke-width="4.58333" stroke-miterlimit="8" fill="none" fill-rule="evenodd"/><text font-family="Times New Roman,Times New Roman_MSFontService,sans-serif" font-weight="400" font-size="73" transform="matrix(1 0 0 1 4136.38 1064)">DwConv<tspan font-size="73" x="4.58301" y="86">1</tspan><tspan font-family="DengXian,DengXian_MSFontService,sans-serif" font-size="73" x="41.25" y="86">×</tspan><tspan font-size="73" x="89.9478" y="86">5 dim</tspan></text><path d="M4091.5 778.5C4091.5 764.141 4103.14 752.5 4117.5 752.5L4426.5 752.5C4440.86 752.5 4452.5 764.141 4452.5 778.5L4452.5 882.5C4452.5 896.859 4440.86 908.5 4426.5 908.5L4117.5 908.5C4103.14 908.5 4091.5 896.859 4091.5 882.5Z" stroke="#000000" stroke-width="4.58333" stroke-miterlimit="8" fill="none" fill-rule="evenodd"/><text font-family="Times New Roman,Times New Roman_MSFontService,sans-serif" font-weight="400" font-size="73" transform="matrix(1 0 0 1 4139.41 813)">DwConv<tspan font-size="73" x="4.5835" y="86">7</tspan><tspan font-family="DengXian,DengXian_MSFontService,sans-serif" font-size="73" x="41.25" y="86">×</tspan><tspan font-size="73" x="89.9478" y="86">7 dim</tspan></text><rect x="5063.5" y="662.5" width="336" height="336" stroke="#000000" stroke-width="4.58333" stroke-miterlimit="8" fill="#C5E0B4"/><rect x="4927.5" y="913.5" width="336" height="336" stroke="#000000" stroke-width="4.58333" stroke-miterlimit="8" fill="#FFFFFF"/><rect x="4790.5" y="1157.5" width="337" height="336" stroke="#000000" stroke-width="4.58333" stroke-miterlimit="8" fill="#FFFFFF"/><path d="M4446.52 1321.21 4764.86 1323.59 4764.83 1328.18 4446.48 1325.79ZM4760.36 1312.1 4787.76 1326.06 4760.16 1339.6Z"/><path d="M4446.5 1079.21 4904.04 1079.21 4904.04 1083.79 4446.5 1083.79ZM4899.45 1067.75 4926.95 1081.5 4899.45 1095.25Z"/><path d="M4448.5 828.208 5040.69 828.209 5040.69 832.792 4448.5 832.792ZM5036.1 816.75 5063.6 830.5 5036.1 844.25Z"/><text font-family="Times New Roman,Times New Roman_MSFontService,sans-serif" font-weight="400" font-size="83" transform="matrix(1 0 0 1 4479.99 1158)">Padding<tspan font-size="83" x="0" y="243">Padding</tspan><tspan font-size="83" x="-0.0444336" y="146">fuse BN</tspan></text><text font-family="Times New Roman,Times New Roman_MSFontService,sans-serif" font-weight="400" font-size="64" transform="translate(4973.16 1225)">×</text><text font-family="Times New Roman,Times New Roman_MSFontService,sans-serif" font-weight="400" font-size="64" transform="matrix(1 0 0 1 5009.26 1225)">dim</text><path d="M5266.51 1086.21 5523.98 1087.18 5523.96 1091.76 5266.49 1090.79ZM5519.44 1075.7 5546.89 1089.56 5519.34 1103.2Z"/><rect x="5783.5" y="744.5" width="336" height="336" stroke="#000000" stroke-width="4.58333" stroke-miterlimit="8" fill="#C5E0B4"/><rect x="5879" y="840" width="144" height="144" fill="#548235" fill-opacity="0.301961"/><rect x="5741.5" y="826.5" width="336" height="336" stroke="#000000" stroke-width="4.58333" stroke-miterlimit="8" fill="#C5E0B4"/><rect x="5837" y="922" width="144" height="144" fill="#548235" fill-opacity="0.301961"/><rect x="5698.5" y="909.5" width="336" height="336" stroke="#000000" stroke-width="4.58333" stroke-miterlimit="8" fill="#C5E0B4"/><rect x="5794" y="1005" width="144" height="144" fill="#548235" fill-opacity="0.301961"/><rect x="5655.5" y="991.5" width="336" height="336" stroke="#000000" stroke-width="4.58333" stroke-miterlimit="8" fill="#C5E0B4"/><rect x="5751" y="1087" width="144" height="144" fill="#548235" fill-opacity="0.301961"/><rect x="5612.5" y="1073.5" width="336" height="336" stroke="#000000" stroke-width="4.58333" stroke-miterlimit="8" fill="#C5E0B4"/><rect x="5708" y="1169" width="144" height="144" fill="#548235" fill-opacity="0.301961"/><rect x="5570.5" y="1157.5" width="336" height="336" stroke="#000000" stroke-width="4.58333" stroke-miterlimit="8" fill="#C5E0B4"/><text font-family="Times New Roman,Times New Roman_MSFontService,sans-serif" font-weight="400" font-size="83" transform="matrix(1 0 0 1 5324.84 1162)">Add</text><text font-family="Times New Roman,Times New Roman_MSFontService,sans-serif" font-weight="400" font-size="64" transform="translate(5100.58 983)">×</text><text font-family="Times New Roman,Times New Roman_MSFontService,sans-serif" font-weight="400" font-size="64" transform="matrix(1 0 0 1 5136.67 983)">dim</text><text font-family="Times New Roman,Times New Roman_MSFontService,sans-serif" font-weight="400" font-size="64" transform="translate(5239 735)">×</text><text font-family="Times New Roman,Times New Roman_MSFontService,sans-serif" font-weight="400" font-size="64" transform="matrix(1 0 0 1 5275.09 735)">dim</text><rect x="4927" y="1238" width="63" height="170" fill="#C5E0B4"/><rect x="4982" y="1048" width="235" height="60.9999" fill="#C5E0B4"/><rect x="5620" y="1294" width="235" height="61.0002" fill="#548235" fill-opacity="0.301961"/><rect x="5706" y="1240" width="63.0005" height="170" fill="#548235" fill-opacity="0.301961"/></g></svg>